<svg xmlns="http://www.w3.org/2000/svg" version="1.1"
  xmlns:xlink="http://www.w3.org/1999/xlink"
  xmlns:svgjs="http://svgjs.com/svgjs" width="512" height="512" x="0" y="0" viewBox="0 0 48 48" style="enable-background:new 0 0 512 512" xml:space="preserve" class="">
  <g>
    <path d="M20.764 7.35C14.035 8.829 9 14.827 9 22v6.686a6.999 6.999 0 0 1-2.05 4.95l-2.243 2.243A2.998 2.998 0 0 0 6.828 41h10.243c.486 3.391 3.405 6 6.929 6s6.443-2.609 6.929-6h10.243a3 3 0 0 0 2.121-5.121l-2.243-2.243a6.999 6.999 0 0 1-2.05-4.95V22A15.001 15.001 0 0 0 27.234 7.353 4.001 4.001 0 0 0 24 1a4.001 4.001 0 0 0-3.236 6.35zM19.1 41c.464 2.281 2.483 4 4.9 4s4.436-1.719 4.9-4zM37 22v6.686a9 9 0 0 0 2.636 6.364l2.243 2.243A1 1 0 0 1 41.172 39H6.828a1 1 0 0 1-.707-1.707l2.243-2.243A9 9 0 0 0 11 28.686V22c0-7.18 5.82-13 13-13a13 13 0 0 1 13 13zM24 3a2 2 0 1 1-.001 4.001A2 2 0 0 1 24 3z" fill="#ffffff" data-original="#000000" class=""></path>
  </g>
</svg>