<svg xmlns="http://www.w3.org/2000/svg" version="1.1"
  xmlns:xlink="http://www.w3.org/1999/xlink"
  xmlns:svgjs="http://svgjs.com/svgjs" width="512" height="512" x="0" y="0" viewBox="0 0 24 24" style="enable-background:new 0 0 512 512" xml:space="preserve" class="">
  <g>
    <path d="M15.84 22.25H8.16a3.05 3.05 0 0 1-3-2.86L4.25 5.55a.76.76 0 0 1 .2-.55.77.77 0 0 1 .55-.25h14a.75.75 0 0 1 .75.8l-.87 13.84a3.05 3.05 0 0 1-3.04 2.86zm-10-16 .77 13.05a1.55 1.55 0 0 0 1.55 1.45h7.68a1.56 1.56 0 0 0 1.55-1.45l.81-13z" fill="#000" data-original="#000000" class=""></path>
    <path d="M21 6.25H3a.75.75 0 0 1 0-1.5h18a.75.75 0 0 1 0 1.5z" fill="#000" data-original="#000000" class=""></path>
    <path d="M15 6.25H9a.76.76 0 0 1-.75-.75V3.7a2 2 0 0 1 1.95-1.95h3.6a2 2 0 0 1 1.95 2V5.5a.76.76 0 0 1-.75.75zm-5.25-1.5h4.5v-1a.45.45 0 0 0-.45-.45h-3.6a.45.45 0 0 0-.45.45zM15 18.25a.76.76 0 0 1-.75-.75v-8a.75.75 0 0 1 1.5 0v8a.76.76 0 0 1-.75.75zM9 18.25a.76.76 0 0 1-.75-.75v-8a.75.75 0 0 1 1.5 0v8a.76.76 0 0 1-.75.75zM12 18.25a.76.76 0 0 1-.75-.75v-8a.75.75 0 0 1 1.5 0v8a.76.76 0 0 1-.75.75z" fill="#000" data-original="#000000" class=""></path>
  </g>
</svg>